<?xml version="1.0" encoding="UTF-8"?><svg id="Layer_2" xmlns="http://www.w3.org/2000/svg" viewBox="0 0 180 57.94"><defs><style>.cls-1{fill:#ffffff;}</style></defs><g id="Layer_1-2"><path class="cls-1" d="m80.94,21.63c-.37,1.22-.76,2.43-1.11,3.66-2.96,10.28-5.94,20.55-8.84,30.85-.38,1.35-1.02,1.83-2.38,1.78-2.15-.09-4.31-.07-6.46,0-1.19.03-1.82-.38-2.2-1.57-5.74-18.18-11.52-36.35-17.28-54.52-.16-.49-.25-1-.43-1.74,3.85,0,7.49-.06,11.11.07.49.02,1.17.92,1.37,1.54,1.77,5.52,3.45,11.07,5.16,16.61,1.67,5.43,3.34,10.85,5.02,16.28.1.32.29.62.65,1.38.4-1.41.69-2.4.97-3.4,2.87-10.18,5.76-20.35,8.59-30.54.4-1.43,1.05-2.08,2.62-2,2.39.13,4.79.09,7.18.01,1.2-.04,1.81.33,2.15,1.55,2.97,10.77,6.01,21.53,9.03,32.29.15.54.34,1.08.93,1.65,1.01-3.23,2.03-6.45,3.03-9.69,2.48-8.05,4.95-16.1,7.39-24.17.34-1.13.89-1.67,2.15-1.64,3.33.07,6.67.02,10.29.02-.2.98-.29,1.67-.49,2.32-5.69,17.81-11.42,35.62-17.06,53.45-.51,1.62-1.27,2.22-2.92,2.11-1.85-.12-3.72-.14-5.56,0-1.73.14-2.39-.61-2.83-2.19-2.88-10.43-5.84-20.83-8.78-31.24-.27-.95-.56-1.89-.85-2.84-.14,0-.28-.01-.43-.02Z"/><path class="cls-1" d="m167.98,25.1c-1.91,3.28-3.83,6.56-5.73,9.85-2.22,3.82-4.4,7.66-6.68,11.45-.27.45-1,.85-1.54.89-1.67.11-3.36.19-5.01-.03-.72-.09-1.59-.77-1.98-1.43-3.9-6.58-7.71-13.21-11.56-19.82-.22-.39-.5-.74-1.16-1.04,0,.62,0,1.24,0,1.85,0,9.39,0,18.78,0,28.17q0,2.9-2.98,2.9c-2.21,0-4.43-.04-6.64.01-1.28.03-1.81-.4-1.81-1.75.03-18.12.03-36.24,0-54.37,0-1.33.46-1.8,1.77-1.76,2.39.07,4.78.07,7.17,0,1.18-.04,1.8.44,2.37,1.46,5.4,9.58,10.85,19.13,16.29,28.68.23.41.53.79,1,1.49,1.06-1.8,2.03-3.39,2.96-5.01,4.8-8.4,9.6-16.79,14.35-25.22.58-1.03,1.26-1.43,2.41-1.4,2.27.07,4.55.09,6.82,0,1.5-.06,1.99.52,1.97,1.99-.06,4.78-.02,9.57-.02,14.35,0,12.98,0,25.96,0,38.94,0,2.58-.01,2.59-2.6,2.59-2.27,0-4.55-.07-6.82.03-1.55.07-2.07-.46-2.06-2.05.06-9.51.03-19.02.03-28.53,0-.7,0-1.4,0-2.1-.18-.05-.36-.1-.55-.14Z"/><path class="cls-1" d="m53.71,57.91h-6.32c-5.81,0-5.74-.03-7.71-5.48-4-11.06-8.08-22.08-12.14-33.12-.16-.42-.38-.82-.81-1.76-1.24,3.35-2.33,6.24-3.39,9.15-3.58,9.79-7.17,19.58-10.69,29.39-.49,1.36-1.2,1.88-2.62,1.84-3.2-.08-6.4-.02-10.03-.02.88-2.47,1.62-4.64,2.43-6.78C8.63,34.76,14.86,18.39,21.03,2,21.56.6,22.25-.07,23.79,0c2.07.1,4.15.09,6.22,0,1.38-.06,1.98.54,2.45,1.79,6.46,17.13,12.98,34.23,19.48,51.35.54,1.41,1.05,2.84,1.77,4.77Z"/></g></svg>