<?xml version="1.0" encoding="UTF-8"?><svg id="Layer_1" xmlns="http://www.w3.org/2000/svg" viewBox="0 0 1798.5 125.54"><defs><style>.cls-1{fill:#fff;}</style></defs><path class="cls-1" d="m1067.56,49.81c-.76,2.51-1.56,5.01-2.28,7.53-6.1,21.17-12.24,42.33-18.21,63.54-.79,2.79-2.11,3.77-4.91,3.66-4.43-.18-8.87-.14-13.3-.02-2.46.07-3.75-.79-4.53-3.24-11.82-37.45-23.73-74.88-35.6-112.31-.32-1.01-.51-2.07-.88-3.58,7.93,0,15.42-.12,22.9.15,1,.04,2.42,1.9,2.83,3.17,3.65,11.37,7.11,22.8,10.62,34.21,3.44,11.18,6.88,22.36,10.34,33.53.21.67.59,1.28,1.34,2.84.83-2.91,1.41-4.95,1.99-7,5.91-20.97,11.87-41.93,17.7-62.92.82-2.96,2.16-4.29,5.39-4.12,4.92.26,9.86.18,14.78.02,2.48-.08,3.74.68,4.43,3.2,6.13,22.19,12.37,44.35,18.59,66.52.31,1.12.69,2.23,1.91,3.4,2.08-6.65,4.19-13.29,6.24-19.95,5.1-16.59,10.2-33.17,15.22-49.78.71-2.33,1.83-3.44,4.42-3.39,6.86.14,13.73.05,21.2.05-.42,2.02-.59,3.44-1.02,4.78-11.72,36.7-23.52,73.37-35.14,110.1-1.06,3.34-2.62,4.56-6.02,4.34-3.8-.25-7.66-.3-11.45.01-3.57.29-4.93-1.26-5.83-4.51-5.93-21.48-12.03-42.91-18.09-64.35-.55-1.96-1.16-3.9-1.74-5.85-.29-.01-.58-.02-.88-.04Z"/><path class="cls-1" d="m1250.5.08v43.32c3.12-1.11,5.49-2.02,7.92-2.79,24.71-7.85,50.41,6.97,55.92,32.23,5.52,25.31-12.4,49.71-38.07,52.4-25.86,2.71-47.89-17.6-47.92-42.27-.04-24.03-.11-48.07-.03-72.1,0-1.33.89-3.46,1.89-3.84,6.41-2.44,12.96-4.49,20.29-6.95Zm42.29,82.09c.09-11.32-9.46-21.1-20.76-21.27-11.28-.17-21.05,9.34-21.29,20.73-.24,11.51,9.42,21.39,20.93,21.41,11.38.02,21.03-9.52,21.12-20.87Z"/><path class="cls-1" d="m1161.97,92.95c5.66,10.74,20.97,13.57,30.58,6.05,2.16-1.69,3.27-1.69,5.13.21,4.13,4.19,8.5,8.15,13.05,12.47-5.32,6.06-11.72,9.73-19.07,11.71-29.67,7.98-56.88-14.46-54.85-45.13,1.32-19.86,18.7-37.04,38.23-38.95,25.35-2.48,47.92,16.61,47.9,43.97,0,11.06,1.7,9.33-9.25,9.4-15.65.1-31.3.02-46.95.04-1.43,0-2.86.14-4.78.25Zm35.34-21.91c-2.66-7.11-13.24-11.19-20.09-10.16-7.1,1.07-13.78,5.61-14.5,10.16h34.59Z"/><path class="cls-1" d="m1460.46,56.94c-3.94,6.76-7.88,13.52-11.81,20.29-4.57,7.87-9.07,15.78-13.76,23.58-.56.94-2.06,1.76-3.18,1.83-3.43.24-6.93.38-10.32-.05-1.48-.19-3.27-1.58-4.08-2.94-8.03-13.55-15.89-27.21-23.8-40.83-.46-.8-1.03-1.53-2.39-2.14,0,1.27,0,2.54,0,3.82,0,19.34,0,38.69,0,58.03q0,5.97-6.15,5.97c-4.56,0-9.12-.09-13.67.03-2.63.07-3.73-.82-3.72-3.61.06-37.33.06-74.66,0-111.99,0-2.75.95-3.7,3.65-3.62,4.92.14,9.86.15,14.78,0,2.44-.07,3.72.91,4.89,3,11.11,19.73,22.34,39.4,33.55,59.08.48.84,1.08,1.62,2.06,3.07,2.19-3.7,4.19-6.98,6.09-10.31,9.88-17.3,19.78-34.59,29.56-51.95,1.2-2.13,2.59-2.96,4.97-2.89,4.68.14,9.37.18,14.04,0,3.08-.12,4.09,1.08,4.06,4.09-.12,9.85-.04,19.71-.04,29.57,0,26.74,0,53.47,0,80.21,0,5.32-.02,5.33-5.37,5.34-4.68.01-9.37-.15-14.04.05-3.19.14-4.27-.94-4.25-4.22.13-19.59.06-39.18.06-58.77,0-1.44,0-2.88,0-4.32-.38-.1-.75-.2-1.13-.3Z"/><path class="cls-1" d="m1645.36,43.62V0c7.54,2.54,14.27,4.72,20.91,7.17.74.27,1.33,2.01,1.33,3.07.04,25.38.45,50.78-.21,76.15-.5,19.12-17.44,36.27-36.67,38.7-18.04,2.28-32.52-3.93-42.78-18.89-17.28-25.2-2.66-60.63,27.27-66.67,9.09-1.83,17.87-.85,26.41,2.65.98.4,1.98.77,3.73,1.44Zm-21.22,59.47c11.58-.04,21.03-9.34,21.12-20.79.1-11.68-9.37-21.14-21.14-21.13-11.48,0-20.96,9.54-20.87,20.97.09,11.59,9.46,20.99,20.89,20.95Z"/><path class="cls-1" d="m1775.55,43.11c-.32-4.68,2.38-4.6,5.28-4.52,4.8.12,9.61.11,14.41.01,2.39-.05,3.24.9,3.23,3.28-.05,26.37-.06,52.74.01,79.11,0,2.87-1.24,3.59-3.79,3.54-4.93-.1-9.86.13-14.78-.11-1.74-.09-3.43-1.15-5.03-2.14-26.33,6.26-43.1,1.68-54.77-15.4-9.81-14.36-10.01-35.35-.47-48.79,6.28-8.85,14.5-14.96,25.01-17.89,10.39-2.9,20.44-1.63,30.89,2.92Zm-19.69,59.98c11.62,0,21.23-9.26,21.1-20.32-.15-12.27-9.36-21.78-21-21.68-11.43.1-21.04,9.71-20.99,21.01.05,11.55,9.45,21,20.89,20.99Z"/><path class="cls-1" d="m1518.85,92.7c3.92,8.29,14.46,12.55,23.22,9.79,2.75-.86,5.35-2.43,7.77-4.05,1.5-1.01,2.42-1.27,3.77.06,3.78,3.7,7.57,7.4,11.52,10.91,2.2,1.96,1.75,3.28-.23,5-12.21,10.61-26.2,13.05-41.38,8.55-18.69-5.54-31.02-23.25-30.01-42.59,1.09-20.81,15.65-37.12,35.44-40.72,26.17-4.76,50.48,15.46,50.63,42.1.01,2.34-.16,4.69.04,7.02.27,3.17-1.18,3.99-4.11,3.97-16.62-.09-33.24-.04-49.86-.04-2.13,0-4.26,0-6.79,0Zm-.35-21.83h36.03c-4.4-6.74-10.18-9.78-17.23-10.03-7.71-.27-13.92,2.96-18.8,10.03Z"/><path class="cls-1" d="m1703,36.62c.12,1.84.26,3.03.26,4.22.01,26.24.01,52.49,0,78.73,0,4.81-.11,4.89-5.03,4.91-4.31.02-8.63-.16-12.93.05-3.41.17-4.49-1.17-4.47-4.5.11-17.74.05-35.48.05-53.23,0-6.53.09-13.06-.06-19.59-.05-2.31.47-3.53,2.88-4.25,6.33-1.9,12.56-4.11,19.3-6.35Z"/><path class="cls-1" d="m739.89,58.87c1.82,1.55,3.48,2.83,4.98,4.26,11.41,10.84,13.31,24.1,8.72,38.37-4.15,12.93-14.37,19.3-27.13,21.83-4.56.9-9.31,1.14-13.98,1.2-13.79.16-27.59,0-41.38.12-3.29.03-4.49-1.13-4.49-4.47.08-38.12.08-76.24,0-114.36,0-3.41,1.27-4.41,4.52-4.37,14.5.16,29.02-.14,43.51.28,9.36.27,18.41,2.61,25.7,8.94,12.49,10.84,13.48,31.18,2.44,44.75-.88,1.08-1.78,2.13-2.9,3.46Zm-49.18,28.05s.02,0,.03,0c0,3.84-.19,7.69.12,11.51.09,1.11,1.62,3.01,2.48,3,9.07-.1,18.28.35,27.17-1.06,9.52-1.51,13.4-11.49,8.76-19.88-2.59-4.68-7.1-6.73-11.97-7.19-7.76-.72-15.6-.68-23.4-.97-2.46-.09-3.2,1.31-3.19,3.49.03,3.7,0,7.4,0,11.09Zm12.81-63.24c-.03.22-.06.45-.09.67-2.98,0-5.97.1-8.95-.03-2.77-.12-3.82,1.14-3.79,3.81.07,5.97.09,11.94,0,17.91-.05,3.16,1.39,4.26,4.42,4.16,4.54-.14,9.12.26,13.64-.14,3.62-.33,7.31-1.11,10.7-2.42,5.08-1.97,6.44-6.46,6.23-11.51-.22-5.18-2.64-8.9-7.53-10.15-4.75-1.22-9.73-1.57-14.61-2.3Z"/><path class="cls-1" d="m339.14,27.6c-6.34,4.23-12.17,8.29-18.24,11.94-.82.49-3.3-.63-4.26-1.69-8.36-9.13-18.5-13.92-30.99-13.5-19.45.65-36.04,16.74-36.84,35.76-.89,21.01,13.16,38.09,33.32,40.71,14.03,1.83,25.37-3.07,34.55-13.47,1.57-1.78,2.81-2.46,5-.92,4.64,3.28,9.42,6.36,14.17,9.48,2.3,1.51,2.88,2.78.87,5.38-21.89,28.21-63.25,32.49-90.26,9.19-22.15-19.11-28.39-49.56-15.57-75.98,13.95-28.75,49.8-42.19,79.64-29.99,11.67,4.77,20.91,12.37,28.62,23.08Z"/><path class="cls-1" d="m223.6,27.76c-6.44,4.29-12.89,8.6-19.06,12.72-4.38-3.66-8.05-7.51-12.42-10.25-13.98-8.75-28.44-8.21-41.75.84-13.67,9.29-19.34,22.97-15.99,39.4,3.27,16.06,13.6,26.16,29.37,29.79,14.97,3.45,27.7-1.45,38-12.85.81-.9,2.96-1.85,3.65-1.42,6.11,3.8,12.02,7.91,17.96,11.9-10.79,18.34-36.6,32.18-65.02,26.26-27.39-5.7-48.48-31.15-49.21-59.14-.76-29.04,17.99-54.73,45.35-62.59,27.02-7.76,55.7,3.87,69.13,25.35Z"/><path class="cls-1" d="m518.41,17.63c-4.88,6.33-9.12,12.02-13.66,17.46-.52.62-2.98.24-4.15-.4-5.83-3.18-11.32-7.03-17.32-9.81-4.87-2.25-10.28-1.97-15.43-.07-4.09,1.51-6.55,4.39-7.17,8.75-.63,4.42,1.44,7.66,5.18,9.4,8.23,3.82,16.78,6.98,24.95,10.92,6.36,3.07,13.11,6.03,18.36,10.58,16.04,13.91,13.03,41.32-4.89,53.17-18.87,12.48-49.06,9.88-67.23-7.17-7.47-7-7.45-7.07-.97-15.05,2.94-3.63,6.04-7.13,9.42-11.11,2.16,2.41,4.03,4.65,6.06,6.73,9,9.21,19.76,13.11,32.54,10.38,6.32-1.35,9.85-5.03,10.39-10.32.53-5.2-1.81-9.11-7.89-11.84-10.1-4.53-20.57-8.3-30.48-13.21-9.28-4.59-16.56-11.47-19.27-22.11-3.84-15.07,3.3-31.15,17.19-38.17,17.94-9.07,35.28-6.22,52.06,3.2,4.16,2.34,7.86,5.5,12.31,8.66Z"/><path class="cls-1" d="m610.54,17.6c-4.77,6.25-8.98,11.96-13.5,17.42-.53.64-3.01.36-4.13-.29-4.65-2.7-8.95-6.05-13.72-8.51-5.86-3.02-12.2-3.73-18.63-1.58-4.45,1.5-7.17,4.5-7.68,9.26-.52,4.84,2.15,7.92,6.15,9.74,11.25,5.1,22.7,9.77,33.89,14.98,9.23,4.29,15.62,11.34,17.88,21.5,4.4,19.77-6.89,38.31-26.54,43.21-22.72,5.67-42.41.07-58.99-16.57-2.57-2.58-3.06-4.53-.41-7.42,4.32-4.69,8.29-9.72,12.77-15.04,2.25,2.47,4.22,4.8,6.35,6.95,9.2,9.27,20.14,13.08,33.03,9.99,7.03-1.68,10.33-6.48,9.56-13-.51-4.36-3.33-6.87-6.97-8.46-7.41-3.25-14.94-6.23-22.4-9.35-8.88-3.7-17.33-8.15-23.2-16.08-11.74-15.86-5.93-39.26,12.13-48.51,18.03-9.24,35.53-6.34,52.41,3.28,4.04,2.3,7.63,5.37,11.98,8.48Z"/><path class="cls-1" d="m114.24,124.61h-13.44c-12.36,0-12.21-.06-16.4-11.65-8.5-23.52-17.19-46.97-25.82-70.45-.33-.9-.8-1.75-1.73-3.74-2.64,7.13-4.95,13.28-7.21,19.46-7.61,20.83-15.25,41.64-22.74,62.51-1.04,2.9-2.55,3.99-5.58,3.92-6.8-.17-13.61-.05-21.33-.05,1.88-5.25,3.45-9.86,5.17-14.42C18.36,75.35,31.62,40.54,44.74,5.68c1.12-2.97,2.59-4.4,5.87-4.24,4.4.21,8.83.2,13.23,0,2.94-.13,4.22,1.15,5.22,3.8,13.75,36.43,27.6,72.81,41.42,109.21,1.14,3.01,2.24,6.04,3.76,10.16Z"/><path class="cls-1" d="m791.97,1.46v5.77c0,29.6,0,59.19,0,88.79,0,5.58.02,5.59,5.66,5.6,14.94,0,29.88.15,44.81-.09,4.22-.07,5.46,1.32,5.18,5.36-.31,4.53-.19,9.11-.04,13.65.09,2.9-.96,4.1-3.93,4.1-24.04-.06-48.08-.06-72.13,0-2.9,0-4.01-1.06-4-4.02.06-36,.02-72,.12-108,0-1.31.84-3.44,1.8-3.79,7.17-2.57,14.48-4.79,22.52-7.37Z"/><path class="cls-1" d="m648.42,1.38c0,2.38,0,3.89,0,5.39,0,37.43-.07,74.86.09,112.29.02,4.31-1.16,5.85-5.51,5.55-4.96-.34-9.96-.17-14.93-.05-2.86.07-4.06-.94-4.06-3.95.07-36.01.02-72.01.12-108.02,0-1.31.81-3.46,1.75-3.8,7.17-2.58,14.47-4.8,22.54-7.4Z"/><path class="cls-1" d="m384.34,51.89c11.67,0,23.34.1,35-.06,3.53-.05,4.8,1.13,4.63,4.66-.24,4.83-.16,9.68-.03,14.51.07,2.71-.86,3.81-3.68,3.8-23.91-.07-47.81-.07-71.72,0-2.9,0-4.16-.98-4.08-3.94.12-4.69.2-9.4-.03-14.09-.18-3.69,1.13-5.02,4.9-4.95,11.67.19,23.34.07,35,.07Z"/><path class="cls-1" d="m895.97,74.77c-11.81,0-23.62-.09-35.43.06-3.34.04-4.6-1.12-4.47-4.45.18-4.83.1-9.68.03-14.51-.03-2.55.74-3.99,3.63-3.99,24.19.05,48.38.04,72.57.01,2.38,0,3.28,1.06,3.24,3.37-.07,5.12-.16,10.25.04,15.37.12,3.16-1.01,4.23-4.18,4.19-11.81-.14-23.62-.06-35.43-.05Z"/><path class="cls-1" d="m895.91,24.37c-11.67,0-23.34-.13-35,.08-3.81.07-5.03-1.3-4.85-4.96.23-4.69.12-9.39.04-14.09-.04-2.6.85-3.93,3.69-3.93,24.05.05,48.1.05,72.14,0,2.86,0,3.69,1.24,3.62,3.89-.12,4.98-.18,9.97.02,14.94.13,3.23-1.15,4.16-4.24,4.13-11.81-.13-23.62-.05-35.43-.05Z"/><path class="cls-1" d="m384.35,24.37c-11.67,0-23.34-.13-35,.07-3.75.06-5.1-1.17-4.91-4.9.24-4.68.11-9.39.05-14.09-.04-2.55.75-3.99,3.64-3.98,24.19.05,48.38.04,72.57.01,2.39,0,3.27,1.07,3.23,3.38-.07,5.12-.16,10.25.04,15.37.12,3.17-1.03,4.22-4.18,4.18-11.81-.14-23.62-.05-35.43-.05Z"/><path class="cls-1" d="m896.41,102.29c11.52,0,23.04.11,34.55-.06,3.54-.05,4.83,1.14,4.62,4.67-.24,3.97-.05,7.96-.06,11.94-.01,5.73-.02,5.76-5.61,5.76-19.06.01-38.11,0-57.17,0-4.27,0-8.53-.07-12.8,0-2.69.04-3.89-1.13-3.85-3.83.07-4.69.14-9.39-.04-14.08-.12-3.34,1.2-4.49,4.51-4.45,11.94.13,23.89.05,35.84.05Z"/><path class="cls-1" d="m384.13,124.6c-11.52,0-23.04-.12-34.55.07-3.94.07-5.34-1.37-5.13-5.23.23-4.25.15-8.53.03-12.8-.09-2.97.85-4.41,4.11-4.4,23.89.09,47.78.07,71.67.01,2.79,0,3.77,1.11,3.69,3.82-.13,4.69-.19,9.39.02,14.08.15,3.34-1.11,4.52-4.43,4.48-11.8-.13-23.6-.05-35.41-.05Z"/></svg>